<?xml version="1.0" encoding="UTF-8" standalone="no"?>
<!-- Created with Inkscape (http://www.inkscape.org/) -->

<svg
   xmlns:dc="http://purl.org/dc/elements/1.1/"
   xmlns:cc="http://creativecommons.org/ns#"
   xmlns:rdf="http://www.w3.org/1999/02/22-rdf-syntax-ns#"
   xmlns:svg="http://www.w3.org/2000/svg"
   xmlns="http://www.w3.org/2000/svg"
   xmlns:sodipodi="http://sodipodi.sourceforge.net/DTD/sodipodi-0.dtd"
   xmlns:inkscape="http://www.inkscape.org/namespaces/inkscape"
   width="210mm"
   height="297mm"
   viewBox="0 0 744.09448819 1052.3622047"
   id="svg2"
   version="1.1"
   inkscape:version="0.91 r13725"
   sodipodi:docname="logo.svg">
  <defs
     id="defs4" />
  <sodipodi:namedview
     id="base"
     pagecolor="#ffffff"
     bordercolor="#666666"
     borderopacity="1.0"
     inkscape:pageopacity="0.0"
     inkscape:pageshadow="2"
     inkscape:zoom="0.78"
     inkscape:cx="403.71011"
     inkscape:cy="627.33408"
     inkscape:document-units="px"
     inkscape:current-layer="layer1"
     showgrid="false"
     inkscape:window-width="1856"
     inkscape:window-height="1155"
     inkscape:window-x="61"
     inkscape:window-y="0"
     inkscape:window-maximized="0" />
  <metadata
     id="metadata7">
    <rdf:RDF>
      <cc:Work
         rdf:about="">
        <dc:format>image/svg+xml</dc:format>
        <dc:type
           rdf:resource="http://purl.org/dc/dcmitype/StillImage" />
        <dc:title></dc:title>
      </cc:Work>
    </rdf:RDF>
  </metadata>
  <g
     inkscape:label="Layer 1"
     inkscape:groupmode="layer"
     id="layer1">
    <path
       style="fill:#1426de;fill-opacity:0;stroke:none;stroke-width:37.6877594;stroke-miterlimit:4;stroke-dasharray:none;stroke-opacity:1"
       d="m 342.57217,318.48263 c -1.75781,0 -3.47949,0.15088 -5.16406,0.45117 -1.68457,0.3003 -3.33203,0.74903 -4.94336,1.34961 -1.61133,0.60059 -3.18652,1.35303 -4.72461,2.25391 -1.53808,0.90088 -3.03906,1.95117 -4.5039,3.15234 -1.4502,1.20118 -2.83155,2.54419 -4.14258,4.02735 -1.31104,1.48315 -2.55274,3.10595 -3.72461,4.87109 -1.17188,1.76514 -2.27393,3.67163 -3.30664,5.71875 -1.03272,2.04712 -1.99512,4.23535 -2.88867,6.56445 -0.87891,2.31446 -1.64746,4.68311 -2.30664,7.10743 -0.65918,2.42431 -1.20899,4.90527 -1.64844,7.43945 -0.43945,2.53418 -0.76856,5.12158 -0.98828,7.76562 -0.21973,2.64405 -0.33008,5.34376 -0.33008,8.09766 0,3.69141 0.20972,7.29956 0.63086,10.82617 0.42114,3.52661 1.0542,6.97217 1.89648,10.33399 0.84229,3.36181 1.89478,6.64087 3.15821,9.83789 1.26342,3.19702 2.7373,6.31152 4.42187,9.34375 0.84229,1.51611 1.74493,2.93707 2.70899,4.26367 0.96405,1.3266 1.99035,2.55823 3.07617,3.69531 1.08581,1.13709 2.23187,2.17938 3.43945,3.12696 1.20758,0.94757 2.47534,1.80053 3.80469,2.55859 1.32934,0.75806 2.72076,1.42169 4.17187,1.99023 1.45111,0.56855 2.96228,1.04285 4.53516,1.42188 1.57287,0.37903 3.2077,0.66205 4.90234,0.85156 1.69464,0.18951 3.44922,0.28516 5.26563,0.28516 1.875,0 4.24804,-0.14649 7.11914,-0.43946 l 0,-43.94531 -13.62305,0 0,-13.62305 30.49414,0 0.88281,0 30.49415,0 0,13.62305 -13.62305,0 0,43.94531 c 2.87109,0.29297 5.24414,0.43946 7.11914,0.43946 1.81641,0 3.57098,-0.0957 5.26562,-0.28516 1.69464,-0.18951 3.32947,-0.47253 4.90235,-0.85156 1.57287,-0.37903 3.08404,-0.85333 4.53515,-1.42188 1.45111,-0.56854 2.84253,-1.23217 4.17188,-1.99023 1.32934,-0.75806 2.59711,-1.61102 3.80469,-2.55859 1.20758,-0.94758 2.35363,-1.98987 3.43945,-3.12696 1.08582,-1.13708 2.11212,-2.36871 3.07617,-3.69531 0.96405,-1.3266 1.8667,-2.74756 2.70899,-4.26367 1.68457,-3.03223 3.15844,-6.14673 4.42187,-9.34375 1.26343,-3.19702 2.31592,-6.47608 3.1582,-9.83789 0.84229,-3.36182 1.47535,-6.80738 1.89649,-10.33399 0.42114,-3.52661 0.63086,-7.13476 0.63086,-10.82617 0,-2.7539 -0.11035,-5.45361 -0.33008,-8.09766 -0.21973,-2.64404 -0.54883,-5.23144 -0.98828,-7.76562 -0.43945,-2.53418 -0.98926,-5.01514 -1.64844,-7.43945 -0.65918,-2.42432 -1.42773,-4.79297 -2.30664,-7.10743 -0.89355,-2.3291 -1.85596,-4.51733 -2.88867,-6.56445 -1.03272,-2.04712 -2.13672,-3.95361 -3.3086,-5.71875 -1.17187,-1.76514 -2.41162,-3.38794 -3.72265,-4.87109 -1.31104,-1.48316 -2.69238,-2.82617 -4.14258,-4.02735 -1.46484,-1.20117 -2.96582,-2.25146 -4.50391,-3.15234 -1.53808,-0.90088 -3.11328,-1.65332 -4.72461,-2.25391 -1.61132,-0.60058 -3.25878,-1.04931 -4.94335,-1.34961 -1.68458,-0.30029 -3.40626,-0.45117 -5.16407,-0.45117 -2.27086,0 -4.54439,0.1619 -6.82226,0.48633 -2.27788,0.32443 -4.56085,0.81057 -6.84571,1.45898 -2.28485,0.64842 -4.57148,1.4597 -6.86328,2.43165 -2.2918,0.97194 -4.58801,2.10536 -6.88672,3.40039 l 0,0.39648 c -0.11781,-0.0681 -0.23572,-0.13006 -0.35351,-0.19726 -0.11779,0.0672 -0.23571,0.12921 -0.35352,0.19726 l 0,-0.39648 c -2.29871,-1.29503 -4.59492,-2.42845 -6.88672,-3.40039 -2.2918,-0.97195 -4.57842,-1.78323 -6.86328,-2.43165 -2.28485,-0.64841 -4.56783,-1.13455 -6.8457,-1.45898 -2.27787,-0.32443 -4.55141,-0.48633 -6.82227,-0.48633 z"
       id="path4168"
       inkscape:connector-curvature="0" />
    <rect
       style="fill:#eb2961;fill-opacity:1;stroke:none;stroke-width:10.39999962;stroke-miterlimit:4;stroke-dasharray:none;stroke-opacity:1"
       id="rect4179"
       width="512"
       height="512"
       x="131.21017"
       y="127.41031" />
    <path
       id="path4162"
       d="m 326.57671,231.69622 c -21.55471,0 -41.34263,5.83037 -59.36377,17.4911 -18.02113,11.66074 -31.97868,28.79849 -41.87265,51.41326 -9.89396,22.61477 -14.84094,48.11528 -14.84094,76.50151 0,28.73959 5.06476,54.53458 15.19429,77.3849 10.12952,22.73256 24.08707,39.75251 41.87265,51.0599 17.90337,11.30738 38.28021,16.96108 61.13056,16.96108 15.88681,0 33.32337,-2.75316 52.29272,-8.23319 18.96934,5.48003 36.40589,8.23319 52.29271,8.23319 22.85035,0 43.22719,-5.6537 61.13055,-16.96108 17.78556,-11.30739 31.74311,-28.32734 41.87264,-51.0599 10.12954,-22.85032 15.19431,-48.64531 15.19431,-77.3849 0,-28.38623 -4.94698,-53.88674 -14.84094,-76.50151 -9.89397,-22.61477 -23.85152,-39.75252 -41.87266,-51.41326 -18.02115,-11.66073 -37.80907,-17.4911 -59.36376,-17.4911 -16.06408,0 -34.20722,3.75495 -54.41285,11.23279 -20.20565,-7.47784 -38.3488,-11.23279 -54.41286,-11.23279 z m -1.41344,27.56173 c 18.25955,0 36.63217,5.221 55.11565,15.63404 l 0,0.79701 c 0.23681,-0.13669 0.47386,-0.26145 0.71065,-0.39654 0.23677,0.13509 0.4738,0.25973 0.71061,0.39654 l 0,-0.79701 c 18.48349,-10.41304 36.85611,-15.63404 55.11566,-15.63404 14.13422,0 27.09061,4.82921 38.86913,14.48758 11.66073,9.6584 21.08355,23.85153 28.26845,42.57936 7.06713,18.61009 10.60068,38.98694 10.60068,61.13056 0,29.68189 -6.77266,56.71359 -20.31795,81.09514 -13.54532,24.38154 -34.92333,36.57232 -64.13407,36.57232 -3.76913,0 -8.53944,-0.29448 -14.3109,-0.88341 l 0,-88.33892 c 17.12714,0.27443 23.60129,1.52925 26.01551,-4.26049 1.59978,-3.83657 1.41683,-10.76642 1.36955,-23.12459 l -61.29937,0 -1.77464,0 -61.29935,0 0,27.38508 27.38507,0 0,88.33892 c -5.77149,0.58893 -10.54178,0.88341 -14.31091,0.88341 -29.21073,0 -50.58876,-12.19078 -64.13406,-36.57232 -13.54531,-24.38155 -20.31796,-51.41325 -20.31796,-81.09514 0,-22.14362 3.53355,-42.52047 10.60068,-61.13056 7.18488,-18.72783 16.6077,-32.92096 28.26846,-42.57936 11.77851,-9.65837 24.73488,-14.48758 38.86911,-14.48758 z"
       style="font-style:normal;font-weight:normal;font-size:20px;line-height:125%;font-family:Sans;letter-spacing:0px;word-spacing:0px;fill:#ffffff;fill-opacity:1;stroke:#ffffff;stroke-width:20;stroke-linecap:butt;stroke-linejoin:miter;stroke-miterlimit:4;stroke-dasharray:none;stroke-opacity:1"
       inkscape:connector-curvature="0"
       sodipodi:nodetypes="ssssccscsccsssscsscccccsccsssccscccccccsssccs" />
    <path
       style="fill:#eb2961;fill-rule:evenodd;stroke:none;stroke-width:1px;stroke-linecap:butt;stroke-linejoin:miter;stroke-opacity:1;fill-opacity:1"
       d="m 369.41195,280.3638 22.80747,13.13157 -31.44666,10.02147 z"
       id="path4196"
       inkscape:connector-curvature="0" />
    <path
       style="fill:#eb2961;fill-rule:evenodd;stroke:none;stroke-width:1px;stroke-linecap:butt;stroke-linejoin:miter;stroke-opacity:1;fill-opacity:1"
       d="m 392.21942,280.70936 -21.4252,11.74931 26.95429,13.13157 z"
       id="path4198"
       inkscape:connector-curvature="0" />
    <rect
       style="fill:#ffffff;fill-opacity:1;stroke:none;stroke-width:20;stroke-miterlimit:4;stroke-dasharray:none;stroke-opacity:1"
       id="rect4200"
       width="70.495827"
       height="38.70359"
       x="382.54352"
       y="378.15948" />
  </g>
</svg>
